# xmcd CD database file
#
# Track frame offsets:
#	150
#	20144
#	38778
#	54618
#	75515
#	94257
#	113916
#	131743
#	155067
#	170902
#	187265
#	207372
#	227301
#	248962
#	271250
#	291592
#	321383
#
# Disc length: 4631 seconds
#
# Revision: 5
# Processed by: cddbd v1.5.2PL0 Copyright (c) Steve Scherf et al.
# Submitted via: CDex 1.70beta2
#
DISCID=05121511
DTITLE=The Moody Blues - Ballads [CD1)
DYEAR=2003
DGENRE=Rock
TTITLE0=Nights In White Satin (J.Hayward) (1967)
TTITLE1=Tuesday Afternoon (Forever Afternoon) (J.Hayward) (1967)
TTITLE2=Voices In The Sky (J.Hayward) (1968)
TTITLE3=Never Comes The Day (J.Hayward) (1969)
TTITLE4=Watching And Waiting (J.Hayward-R.Thomas) (1969)
TTITLE5=Dawning Is The Day (J.Hayward) (1970)
TTITLE6=For My Lady (Ray Thomas) (1972)
TTITLE7=New Horizons (J.Hayward) (1972)
TTITLE8=Isn't Life Strange (Full Version) (John Lodge) (1972)
TTITLE9=Blue Guitar (J.Hayward) (1974)
TTITLE10=Driftwood (Full Version) (J.Hayward) (1978)
TTITLE11=Forever Autumn (Osborne-Vigrass-Wayne) (1978)
TTITLE12=Your Wildest Dreams (J.Hayward) (1988)
TTITLE13=Lean On Me (Tonight) (John Lodge) (1991)
TTITLE14=Haunted (J.Hayward) (1999)
TTITLE15=I Know You're Out There Somewhere (J.Hayward) (1988)
TTITLE16=Nervous (John Lodge) (1981)
EXTD=YEAR: 2003
EXTT0=
EXTT1=
EXTT2=
EXTT3=
EXTT4=
EXTT5=
EXTT6=
EXTT7=
EXTT8=
EXTT9=
EXTT10=
EXTT11=
EXTT12=
EXTT13=
EXTT14=
EXTT15=
EXTT16=
PLAYORDER=
